<?xml version="1.0" encoding="UTF-8"?>
<svg xmlns="http://www.w3.org/2000/svg" xmlns:xlink="http://www.w3.org/1999/xlink" width="30px" height="30px" viewBox="0 0 30 30" version="1.1">
<g id="surface1">
<path style=" stroke:none;fill-rule:nonzero;fill:rgb(88.627451%,88.627451%,88.627451%);fill-opacity:1;" d="M 30 2.609375 L 30 21.847656 C 30 22.207031 29.707031 22.5 29.347656 22.5 L 0.523438 22.5 L 0.523438 1.957031 L 29.347656 1.957031 C 29.707031 1.957031 30 2.25 30 2.609375 Z M 30 2.609375 "/>
<path style=" stroke:none;fill-rule:nonzero;fill:rgb(0%,18.039216%,20.784314%);fill-opacity:1;" d="M 23.152344 8.804688 L 16.304688 8.804688 L 16.304688 1.957031 L 23.152344 1.957031 Z M 1.957031 1.957031 L 1.957031 8.804688 L 9.457031 8.804688 L 9.457031 1.957031 Z M 23.152344 8.804688 L 23.152344 15.652344 L 30 15.652344 L 30 8.804688 Z M 9.457031 8.804688 L 9.457031 15.652344 L 16.304688 15.652344 L 16.304688 8.804688 Z M 16.304688 22.5 L 23.152344 22.5 L 23.152344 15.652344 L 16.304688 15.652344 Z M 1.957031 22.5 L 9.457031 22.5 L 9.457031 15.652344 L 1.957031 15.652344 Z M 1.957031 22.5 "/>
<path style=" stroke:none;fill-rule:nonzero;fill:rgb(74.901961%,30.196078%,0%);fill-opacity:1;" d="M 1.304688 30 C 0.582031 30 0 29.417969 0 28.695312 L 0 1.304688 C 0 0.582031 0.582031 0 1.304688 0 C 2.023438 0 2.609375 0.582031 2.609375 1.304688 L 2.609375 28.695312 C 2.609375 29.417969 2.023438 30 1.304688 30 Z M 1.304688 30 "/>
<path style=" stroke:none;fill-rule:nonzero;fill:rgb(54.901961%,10.196078%,0%);fill-opacity:1;" d="M 1.957031 29.824219 C 1.765625 29.933594 1.542969 30 1.304688 30 C 0.582031 30 0 29.417969 0 28.695312 L 0 1.304688 C 0 0.582031 0.582031 0 1.304688 0 C 1.542969 0 1.765625 0.0664062 1.957031 0.175781 C 1.566406 0.402344 1.304688 0.820312 1.304688 1.304688 L 1.304688 28.695312 C 1.304688 29.179688 1.566406 29.597656 1.957031 29.824219 Z M 1.957031 29.824219 "/>
</g>
</svg>
