<?xml version="1.0" encoding="UTF-8"?>
<svg xmlns="http://www.w3.org/2000/svg" xmlns:xlink="http://www.w3.org/1999/xlink" width="50px" height="50px" viewBox="0 0 50 50" version="1.1">
<g id="surface1">
<path style=" stroke:none;fill-rule:nonzero;fill:rgb(88.627451%,88.627451%,88.627451%);fill-opacity:1;" d="M 50 4.347656 L 50 36.414062 C 50 37.011719 49.511719 37.5 48.914062 37.5 L 0.871094 37.5 L 0.871094 3.261719 L 48.914062 3.261719 C 49.511719 3.261719 50 3.746094 50 4.347656 Z M 50 4.347656 "/>
<path style=" stroke:none;fill-rule:nonzero;fill:rgb(0%,18.039216%,20.784314%);fill-opacity:1;" d="M 38.585938 14.675781 L 27.171875 14.675781 L 27.171875 3.261719 L 38.585938 3.261719 Z M 3.261719 3.261719 L 3.261719 14.675781 L 15.761719 14.675781 L 15.761719 3.261719 Z M 38.585938 14.675781 L 38.585938 26.085938 L 50 26.085938 L 50 14.675781 Z M 15.761719 14.675781 L 15.761719 26.085938 L 27.175781 26.085938 L 27.175781 14.675781 Z M 27.175781 37.5 L 38.585938 37.5 L 38.585938 26.085938 L 27.175781 26.085938 Z M 3.261719 37.5 L 15.761719 37.5 L 15.761719 26.085938 L 3.261719 26.085938 Z M 3.261719 37.5 "/>
<path style=" stroke:none;fill-rule:nonzero;fill:rgb(74.901961%,30.196078%,0%);fill-opacity:1;" d="M 2.175781 50 C 0.972656 50 0 49.027344 0 47.824219 L 0 2.175781 C 0 0.972656 0.972656 0 2.175781 0 C 3.375 0 4.347656 0.972656 4.347656 2.175781 L 4.347656 47.824219 C 4.347656 49.027344 3.375 50 2.175781 50 Z M 2.175781 50 "/>
<path style=" stroke:none;fill-rule:nonzero;fill:rgb(54.901961%,10.196078%,0%);fill-opacity:1;" d="M 3.261719 49.707031 C 2.941406 49.890625 2.570312 50 2.175781 50 C 0.972656 50 0 49.027344 0 47.824219 L 0 2.175781 C 0 0.972656 0.972656 0 2.175781 0 C 2.570312 0 2.941406 0.109375 3.261719 0.292969 C 2.613281 0.667969 2.175781 1.371094 2.175781 2.175781 L 2.175781 47.824219 C 2.175781 48.628906 2.613281 49.332031 3.261719 49.707031 Z M 3.261719 49.707031 "/>
</g>
</svg>
