<svg xmlns="http://www.w3.org/2000/svg" width="30" height="30"><path style="stroke:none;fill-rule:nonzero;fill:#e2e2e2;fill-opacity:1" d="M30 2.61v19.238a.653.653 0 0 1-.652.652H.523V1.957h28.825c.359 0 .652.293.652.652Zm0 0"/><path style="stroke:none;fill-rule:nonzero;fill:#002e35;fill-opacity:1" d="M23.152 8.805h-6.847V1.957h6.847ZM1.957 1.957v6.848h7.5V1.957Zm21.195 6.848v6.847H30V8.805Zm-13.695 0v6.847h6.848V8.805ZM16.305 22.5h6.847v-6.848h-6.847Zm-14.348 0h7.5v-6.848h-7.5Zm0 0"/><path style="stroke:none;fill-rule:nonzero;fill:#bf4d00;fill-opacity:1" d="M1.305 30A1.302 1.302 0 0 1 0 28.695V1.305a1.305 1.305 0 1 1 2.61 0v27.39c0 .723-.587 1.305-1.305 1.305Zm0 0"/><path style="stroke:none;fill-rule:nonzero;fill:#8c1a00;fill-opacity:1" d="M1.957 29.824A1.302 1.302 0 0 1 0 28.695V1.305A1.302 1.302 0 0 1 1.957.175a1.3 1.3 0 0 0-.652 1.13v27.39c0 .485.261.903.652 1.13Zm0 0"/></svg>